<?xml version="1.0" encoding="UTF-8"?>
<svg version="1.1" xmlns="http://www.w3.org/2000/svg" width="577" height="568">
<path d="M0 0 C0.33 0.66 0.66 1.32 1 2 C-3.06664079 6.49770471 -7.54421985 9.37701503 -12.75 12.4375 C-14.35879051 13.40245044 -15.96687172 14.36858452 -17.57421875 15.3359375 C-18.72156494 16.02381348 -18.72156494 16.02381348 -19.89208984 16.72558594 C-26.8876195 20.3987895 -26.8876195 20.3987895 -32 26 C-32.09364646 27.81882229 -32.18263072 29.63811504 -32.23828125 31.45849609 C-32.68678621 44.55071 -36.89237641 50.56390474 -46 60 C-46.74507813 60.7734375 -47.49015625 61.546875 -48.2578125 62.34375 C-51.07952749 65.21752615 -53.63866904 67.7591127 -57 70 C-55.1128125 69.7834375 -55.1128125 69.7834375 -53.1875 69.5625 C-47.79870505 68.96183814 -42.40116209 68.47449461 -37 68 C-38.53053057 72.37873645 -41.92348871 74.44286945 -45.5625 77 C-46.22362793 77.47493896 -46.88475586 77.94987793 -47.56591797 78.43920898 C-51.84721845 81.50565413 -56.16365254 84.52272002 -60.47265625 87.55004883 C-61.18292969 88.04915771 -61.89320313 88.5482666 -62.625 89.0625 C-63.3365625 89.56225342 -64.048125 90.06200684 -64.78125 90.5769043 C-71.33817239 95.2005873 -77.72424343 100.00022713 -84 105 C-85.25876953 105.99 -85.25876953 105.99 -86.54296875 107 C-87.27128906 107.598125 -87.99960937 108.19625 -88.75 108.8125 C-89.36359375 109.31394531 -89.9771875 109.81539063 -90.609375 110.33203125 C-92.38852822 112.46601559 -92.6490902 114.28044904 -93 117 C-92.34 117.350625 -91.68 117.70125 -91 118.0625 C-89 120 -89 120 -88.375 122.9375 C-89.15954114 134.25391154 -98.13447615 143.64467229 -106 151 C-108.57164287 153.003324 -111.15919978 154.84507388 -113.90625 156.59765625 C-115.86773062 157.91140913 -117.40104542 159.27292406 -119 161 C-118.566875 161.48210937 -118.13375 161.96421875 -117.6875 162.4609375 C-116.8521875 163.40839844 -116.8521875 163.40839844 -116 164.375 C-115.1646875 165.31472656 -115.1646875 165.31472656 -114.3125 166.2734375 C-113 168 -113 168 -113 170 C-107.69503511 167.56753914 -102.69889406 164.87199051 -97.85009766 161.6315918 C-91.45568284 157.36020654 -85.46120866 154.02037479 -78 152 C-77.31131836 151.80986328 -76.62263672 151.61972656 -75.91308594 151.42382812 C-55.07437026 145.80970498 -33.52426606 144.10697738 -12.12890625 141.8515625 C52.54781331 135.02101214 118.86228103 127.58992836 177.375 97.25 C180 96 180 96 182 96 C181.69743641 100.23589022 180.7841767 103.18607926 177.89453125 106.3671875 C153.02022781 127.80524696 112.79058034 137.65788603 81.23144531 141.48144531 C73.08044985 142.46993975 64.9438331 143.5732852 56.80618286 144.66519165 C53.8640688 145.05565602 50.92043579 145.43235379 47.97631836 145.80737305 C46.13650049 146.04954618 44.29673572 146.29212313 42.45703125 146.53515625 C41.62158783 146.63819061 40.78614441 146.74122498 39.92538452 146.84738159 C34.57311439 147.56960108 29.99518135 148.93617409 25 151 C25 152.65 25 154.3 25 156 C34.12490811 160.36349305 45.68004169 156.62976608 55.1875 154.75 C90.25063602 148.21415062 126.31890813 144.62086207 162 145 C162 145.66 162 146.32 162 147 C101.81380541 158.00970236 41.69616255 168.21467398 -19 176 C8.79407756 176.4668658 36.28063079 175.25194983 63.99645996 173.21862793 C69.10371843 172.84687016 74.2120675 172.49071079 79.3203125 172.1328125 C89.21467781 171.43726296 99.10772402 170.72462067 109 170 C108.67 170.66 108.34 171.32 108 172 C106.11181641 172.62255859 106.11181641 172.62255859 103.6015625 173.1484375 C102.66078857 173.34719482 101.72001465 173.54595215 100.75073242 173.75073242 C99.71924072 173.95674072 98.68774902 174.16274902 97.625 174.375 C96.55805908 174.59196533 95.49111816 174.80893066 94.3918457 175.0324707 C64.01756725 181.05178385 33.43899361 184.2076987 2.4921875 184.09765625 C0.90365647 184.09578337 -0.68487516 184.0943636 -2.27340698 184.09336853 C-6.38643078 184.0896117 -10.49941734 184.07984285 -14.61242676 184.06866455 C-18.8366648 184.05830046 -23.06090906 184.05383932 -27.28515625 184.04882812 C-35.52345429 184.03821192 -43.76172247 184.02122151 -52 184 C-39.62954568 186.98087073 -27.36630779 189.06062074 -14.734375 190.54296875 C-12.95833593 190.75824236 -11.18239774 190.97434973 -9.40655518 191.1912384 C-4.79369438 191.75258301 -0.1796626 192.30359587 4.43475342 192.85198975 C10.06336162 193.52278561 15.69054715 194.20539668 21.31786728 194.88689899 C25.6889189 195.41613893 30.06016832 195.94347332 34.43218994 196.46464539 C35.23331711 196.56061005 36.03444427 196.65657471 36.85984802 196.75544739 C38.34412174 196.93320243 39.82851801 197.10993871 41.31306458 197.28540039 C45.22930328 197.7558315 49.11469485 198.31983782 53 199 C53 199.33 53 199.66 53 200 C32.64592132 200.30420915 12.52886973 199.51510324 -7.77032471 198.14575195 C-13.56516245 197.75602394 -19.36087298 197.37993075 -25.15692329 197.00872803 C-27.13655243 196.88008754 -29.11576638 196.7451057 -31.09495544 196.60986328 C-46.12448431 195.35215342 -46.12448431 195.35215342 -61 197 C-56.99308616 199.68805405 -52.95508075 201.06602783 -48.33984375 202.3046875 C-47.60095917 202.50909454 -46.86207458 202.71350159 -46.10079956 202.92410278 C-43.71498814 203.58177816 -41.32635397 204.22847297 -38.9375 204.875 C-37.30349282 205.32372111 -35.66962252 205.77294097 -34.03588867 206.22265625 C-24.52272406 208.83029137 -14.99344307 211.36878407 -5.37280273 213.55419922 C-3.56722018 213.97796462 -1.78014249 214.4796173 0 215 C0.33 215.66 0.66 216.32 1 217 C-7.22737331 217.48112951 -14.60875587 216.03155604 -22.59375 214.15625 C-24.53136785 213.71548794 -26.46898602 213.27472729 -28.40662384 212.83405304 C-31.09151117 212.22053287 -33.77403749 211.59700788 -36.45666504 210.97369385 C-41.18463274 209.87763801 -45.91660251 208.79896005 -50.64807129 207.71813965 C-53.16179387 207.14285626 -55.67475923 206.56425234 -58.18688965 205.98205566 C-59.31566528 205.72178589 -60.44444092 205.46151611 -61.60742188 205.19335938 C-62.60318237 204.96241577 -63.59894287 204.73147217 -64.62487793 204.49353027 C-66.92205275 203.93218472 -66.92205275 203.93218472 -69 204 C-67.02 204.99 -65.04 205.98 -63 207 C-66.0867491 208.02891637 -67.13934736 207.98947742 -70.23046875 207.44140625 C-71.03291016 207.30283203 -71.83535156 207.16425781 -72.66210938 207.02148438 C-73.91217773 206.79428711 -73.91217773 206.79428711 -75.1875 206.5625 C-76.03248047 206.41490234 -76.87746094 206.26730469 -77.74804688 206.11523438 C-79.8331891 205.75003997 -81.91675673 205.3758757 -84 205 C-84 205.66 -84 206.32 -84 207 C-83.45472656 207.17015625 -82.90945313 207.3403125 -82.34765625 207.515625 C-76.71615022 209.32540814 -71.36060431 211.50345378 -66 214 C-69.58457627 215.19485876 -70.68361484 214.70256827 -74.21875 213.56640625 C-75.23324219 213.24736328 -76.24773437 212.92832031 -77.29296875 212.59960938 C-78.35128906 212.25736328 -79.40960938 211.91511719 -80.5 211.5625 C-82.59257138 210.8934379 -84.68627603 210.22790693 -86.78125 209.56640625 C-88.1744043 209.11696655 -88.1744043 209.11696655 -89.59570312 208.65844727 C-92.06677115 207.86793172 -92.06677115 207.86793172 -95 208 C-88.4 211.96 -81.8 215.92 -75 220 C-75.33 220.66 -75.66 221.32 -76 222 C-78.97 220.68 -81.94 219.36 -85 218 C-84.51168701 219.00313232 -84.02337402 220.00626465 -83.52026367 221.03979492 C-78.66237624 231.12705126 -74.36281895 241.34783207 -70.30184937 251.77819824 C-55.39501102 289.96332066 -38.05591369 327.0284603 -12 359 C-11.33919434 359.81186768 -11.33919434 359.81186768 -10.66503906 360.64013672 C-4.32595018 368.30296196 2.947185 374.27796295 11 380 C11.55220215 380.40041504 12.1044043 380.80083008 12.67333984 381.21337891 C30.80147638 394.27931883 50.74873536 403.39202749 71.91491699 410.3157959 C74.21910904 411.07189896 76.5202323 411.83694897 78.82128906 412.60253906 C106.33059485 421.73205534 133.96105254 430.03215873 162.40625 435.71484375 C165.16684492 436.26734668 167.92737995 436.82012881 170.6875 437.375 C171.35682556 437.50935455 172.02615112 437.64370911 172.71575928 437.78213501 C183.66839116 440.0099265 194.22494454 443.05182203 204.8125 446.625 C205.83674576 446.97023712 205.83674576 446.97023712 206.88168335 447.32244873 C215.39600839 450.21576514 223.74590657 453.42852653 232 457 C232 458.98 232 460.96 232 463 C225.82831919 461.30611334 219.81735682 459.25090436 213.81640625 457.0390625 C213.07151947 456.76519714 212.32663269 456.49133179 211.55917358 456.20916748 C208.45895394 455.06729856 205.35977556 453.92286642 202.26489258 452.76660156 C185.36474893 446.46491426 168.52798723 442.03542529 150.72970581 439.14733887 C112.29230936 432.82902228 76.34308295 420.2763509 41 404 C40.08048553 403.57699615 40.08048553 403.57699615 39.14239502 403.14544678 C30.41344433 399.12857723 21.70052328 395.07809543 13 391 C21.86895566 396.66739128 31.23945614 401.27213052 40.6875 405.875 C41.53502838 406.28807404 42.38255676 406.70114807 43.25576782 407.1267395 C81.21408306 425.55133359 120.29333307 439.42299553 160.86569214 450.81445312 C185.02530595 457.60006212 208.87500101 465.1936517 232 475 C231.67 475.99 231.34 476.98 231 478 C230.18362061 477.68885254 229.36724121 477.37770508 228.52612305 477.05712891 C198.87349293 465.83053397 168.80856307 457.41618131 138.125 449.5 C136.61060333 449.10723877 136.61060333 449.10723877 135.06561279 448.70654297 C124.43227232 445.95763767 113.92644962 443.29123725 103 442 C103.79470703 442.35191406 104.58941406 442.70382812 105.40820312 443.06640625 C134.60506868 456.01649254 134.60506868 456.01649254 146.09814453 462.01220703 C148.18184972 463.0944498 150.27620472 464.15442285 152.37109375 465.21484375 C169.74792798 474.0935716 186.25158627 484.45041859 202.57421875 495.12109375 C208.93758384 499.27600555 215.36346905 503.33344379 221.77954102 507.40625 C223.12230103 508.25896484 223.12230103 508.25896484 224.4921875 509.12890625 C225.28995605 509.63494385 226.08772461 510.14098145 226.90966797 510.66235352 C228.61869354 511.75599415 230.31177462 512.87451641 232 514 C232.1875 516.625 232.1875 516.625 232 519 C227.11954073 517.39680013 223.39062906 514.59409537 219.28515625 511.60546875 C211.189679 505.80380603 202.96759837 500.22895881 194.64282227 494.76245117 C192.43043031 493.30785184 190.22396325 491.84454927 188.01757812 490.38085938 C178.57241875 484.14750284 168.96175985 478.36927881 159 473 C158.08259033 472.50363037 157.16518066 472.00726074 156.2199707 471.49584961 C139.40409669 462.62318605 121.53740832 456.63734828 103.64929199 450.3533783 C63.39066982 436.1828203 22.88866087 417.14639277 -8.3515625 387.47265625 C-10.24682442 385.70318605 -12.13127883 384.04378411 -14.1328125 382.40625 C-17.88322227 379.25876714 -20.85365968 375.7343244 -24 372 C-24.74121094 371.15824219 -25.48242188 370.31648438 -26.24609375 369.44921875 C-39.26807923 354.38538594 -49.02981509 337.27077509 -58.2578125 319.7109375 C-58.61584961 319.03184326 -58.97388672 318.35274902 -59.34277344 317.65307617 C-60.3063513 315.81822154 -61.25906813 313.97767462 -62.2109375 312.13671875 C-64.99635707 307.25311195 -67.95342004 303.71952208 -72.5625 300.5 C-73.32691406 299.9534375 -74.09132813 299.406875 -74.87890625 298.84375 C-83.28093769 293.8803472 -91.89762826 291.01121431 -101.3125 288.625 C-113.70775444 285.31533457 -124.20886316 281.50015731 -134 273 C-134.33 273.99 -134.66 274.98 -135 276 C-136.65 276 -138.3 276 -140 276 C-141.7698538 273.16823392 -142.01227131 271.62572519 -142.125 268.1875 C-142.52468256 264.4456443 -143.63311494 263.02162526 -146.5 260.625 C-147.22574219 260.04878906 -147.95148438 259.47257812 -148.69921875 258.87890625 C-166.79472834 244.1014188 -179.17353817 220.26173496 -181.80981445 197.22973633 C-182.19234874 192.74490237 -182.29119611 188.24746267 -182.4375 183.75 C-183.02197712 169.33817335 -185.6643838 156.9307416 -190.23730469 143.29492188 C-190.934221 141.19792656 -191.6002894 139.09397255 -192.2578125 136.984375 C-196.1505033 125.07428791 -201.90343048 117.10540276 -213 111 C-238.33757618 99.33012762 -267.81246683 101.26925577 -294.45849609 106.54248047 C-298.29058418 107.23232995 -302.1254783 107.62402496 -306 108 C-299.97182067 100.32777177 -289.06518083 99.14645467 -280 98 C-275.87009892 97.67377926 -271.76705127 97.57247634 -267.625 97.5625 C-266.47596191 97.55863281 -265.32692383 97.55476563 -264.14306641 97.55078125 C-255.03438409 97.66848666 -246.32690861 98.87662604 -237.375 100.5 C-218.25812246 103.93767882 -205.38510074 103.76760064 -187.11206055 96.75610352 C-177.2305505 93.21858917 -163.95782974 93.49436177 -154.33203125 97.6640625 C-150.36487632 99.93670402 -147.15829498 102.71417292 -144 106 C-143.2575 106.763125 -142.515 107.52625 -141.75 108.3125 C-136.9464856 115.68932569 -135.6534648 122.88867175 -134.625 131.5 C-133.34868103 141.93540967 -130.62335774 148.60715415 -123 156 C-115.54002062 152.16762601 -115.54002062 152.16762601 -109 147 C-108.35153161 144.1870493 -108.69664129 142.3171879 -109.171875 139.4921875 C-109 137 -109 137 -106.828125 134.5078125 C-104.98872472 132.95804155 -103.10912745 131.45437094 -101.1875 130.0078125 C-100.465625 129.34523437 -99.74375 128.68265625 -99 128 C-99 126.68 -99 125.36 -99 124 C-102.68266103 124.59950296 -106.34543185 125.24758891 -110 126 C-103.71404761 109.43734256 -87.72702254 100.43376591 -73.07397461 92.08154297 C-60.71365845 85.14779592 -60.71365845 85.14779592 -50 76 C-56.46631239 76.47134851 -61.3320631 78.14873311 -67.125 81 C-67.95612305 81.40299316 -68.78724609 81.80598633 -69.64355469 82.22119141 C-77.1547502 85.9391898 -84.153528 90.17802241 -91 95 C-91.61327148 95.43070801 -92.22654297 95.86141602 -92.85839844 96.30517578 C-101.58007862 102.47617591 -109.89401447 109.0412303 -118 116 C-118.66 115.67 -119.32 115.34 -120 115 C-111.83902286 96.0944198 -94.23465748 80.22159608 -78 68 C-77.45730469 67.58621094 -76.91460937 67.17242187 -76.35546875 66.74609375 C-68.3501586 60.65779801 -60.15431259 55.00051023 -51.54638672 49.79150391 C-47.5744878 47.31882518 -45.0414394 45.38124301 -43 41 C-50.93018915 45.92276572 -58.62929921 51.13591514 -66.30078125 56.44921875 C-69.50971636 58.67040483 -72.74583021 60.84568914 -76 63 C-70.89280109 43.52880417 -50.93328297 26.34151511 -34.05078125 16.234375 C-27.58244446 12.88107625 -20.79086396 10.25714767 -14.03417969 7.54956055 C-8.97645277 5.49334409 -4.48313819 3.14773532 0 0 Z " fill="#FFD703" transform="translate(345,15)"/>
<path d="M0 0 C0.99 0.33 1.98 0.66 3 1 C0.59429192 2.87010889 -1.82274155 4.72074474 -4.25 6.5625 C-4.93191406 7.09552734 -5.61382812 7.62855469 -6.31640625 8.17773438 C-6.98027344 8.67724609 -7.64414062 9.17675781 -8.328125 9.69140625 C-8.9355957 10.15748291 -9.54306641 10.62355957 -10.16894531 11.10375977 C-12 12 -12 12 -14.22949219 11.64428711 C-14.81375977 11.43167236 -15.39802734 11.21905762 -16 11 C-14.92878906 10.28972656 -13.85757812 9.57945313 -12.75390625 8.84765625 C-11.35673055 7.91933146 -9.95959733 6.99094274 -8.5625 6.0625 C-7.85544922 5.59392578 -7.14839844 5.12535156 -6.41992188 4.64257812 C-5.74638672 4.19462891 -5.07285156 3.74667969 -4.37890625 3.28515625 C-3.7557251 2.87144775 -3.13254395 2.45773926 -2.49047852 2.03149414 C-1.01980114 1.0794855 -1.01980114 1.0794855 0 0 Z " fill="#FFDB1E" transform="translate(292,94)"/>
<path d="M0 0 C4.60853797 0.72008406 8.67237409 2.31295939 13 4 C12.67 4.99 12.34 5.98 12 7 C7.71 5.35 3.42 3.7 -1 2 C-0.67 1.34 -0.34 0.68 0 0 Z " fill="#FFDA16" transform="translate(564,486)"/>
<path d="M0 0 C1.49080078 0.16628906 1.49080078 0.16628906 3.01171875 0.3359375 C3.77097656 0.43132812 4.53023437 0.52671875 5.3125 0.625 C4.3225 2.11 4.3225 2.11 3.3125 3.625 C-2.6275 2.635 -2.6275 2.635 -8.6875 1.625 C-5.1388865 -0.74074234 -4.1110475 -0.48365265 0 0 Z " fill="#FFDC23" transform="translate(116.6875,117.375)"/>
<path d="M0 0 C0.33 0.66 0.66 1.32 1 2 C-3.625 6.875 -3.625 6.875 -7 8 C-5.98823563 4.59679258 -5.35156418 3.24274669 -2.375 1.1875 C-1.59125 0.795625 -0.8075 0.40375 0 0 Z " fill="#FFDA17" transform="translate(345,15)"/>
<path d="M0 0 C2 1 2 1 2 1 Z " fill="#FFE34D" transform="translate(279,230)"/>
</svg>
